<?xml version="1.0" encoding="UTF-8" standalone="no"?>
<svg
   xmlns:dc="http://purl.org/dc/elements/1.1/"
   xmlns:cc="http://creativecommons.org/ns#"
   xmlns:rdf="http://www.w3.org/1999/02/22-rdf-syntax-ns#"
   xmlns:svg="http://www.w3.org/2000/svg"
   xmlns="http://www.w3.org/2000/svg"
   xmlns:sodipodi="http://sodipodi.sourceforge.net/DTD/sodipodi-0.dtd"
   xmlns:inkscape="http://www.inkscape.org/namespaces/inkscape"
   enable-background="new 0 0 32 32"
   height="32px"
   id="Layer_1"
   version="1.1"
   viewBox="0 0 32 32"
   width="32px"
   xml:space="preserve"
   inkscape:version="0.91 r13725"
   sodipodi:docname="up-red.svg"><metadata
     id="metadata25"><rdf:RDF><cc:Work
         rdf:about=""><dc:format>image/svg+xml</dc:format><dc:type
           rdf:resource="http://purl.org/dc/dcmitype/StillImage" /></cc:Work></rdf:RDF></metadata><defs
     id="defs23" /><sodipodi:namedview
     pagecolor="#ffffff"
     bordercolor="#666666"
     borderopacity="1"
     objecttolerance="10"
     gridtolerance="10"
     guidetolerance="10"
     inkscape:pageopacity="0"
     inkscape:pageshadow="2"
     inkscape:window-width="680"
     inkscape:window-height="480"
     id="namedview21"
     showgrid="false"
     inkscape:zoom="7.375"
     inkscape:cx="-7.0508479"
     inkscape:cy="16"
     inkscape:window-x="0"
     inkscape:window-y="46"
     inkscape:window-maximized="0"
     inkscape:current-layer="g11" /><g
     id="g3"><polyline
       fill="none"
       points="   649,137.999 675,137.999 675,155.999 661,155.999  "
       stroke="#FFFFFF"
       stroke-linecap="round"
       stroke-linejoin="round"
       stroke-miterlimit="10"
       stroke-width="2"
       id="polyline5" /><polyline
       fill="none"
       points="   653,155.999 649,155.999 649,141.999  "
       stroke="#FFFFFF"
       stroke-linecap="round"
       stroke-linejoin="round"
       stroke-miterlimit="10"
       stroke-width="2"
       id="polyline7" /><polyline
       fill="none"
       points="   661,156 653,162 653,156  "
       stroke="#FFFFFF"
       stroke-linecap="round"
       stroke-linejoin="round"
       stroke-miterlimit="10"
       stroke-width="2"
       id="polyline9" /></g><g
     id="g11"><g
       id="g13"
       style="fill:#ff0000;fill-opacity:1"
       transform="matrix(0,1,-1,0,31.999484,2.6557028e-4)"><path
         inkscape:connector-curvature="0"
         d="M 29.018,17 2.982,17 C 2.585,17 2.226,16.756 2.074,16.383 1.922,16.009 2.006,15.579 2.287,15.293 l 11.789,-12 c 0.384,-0.391 1.005,-0.391 1.389,0 0.384,0.391 0.384,1.023 0,1.414 L 5.354,15 29.017,15 c 0.544,0 0.983,0.448 0.983,1 0,0.552 -0.439,1 -0.982,1 z"
         id="path15"
         style="fill:#ff0000;fill-opacity:1" /></g><g
       id="g17"
       style="fill:#ff0000;fill-opacity:1"
       transform="matrix(0,1,-1,0,31.999484,2.6557028e-4)"><path
         inkscape:connector-curvature="0"
         d="m 14.772,29 c -0.251,0 -0.503,-0.098 -0.695,-0.293 l -7.86,-8 c -0.384,-0.391 -0.384,-1.023 0,-1.414 0.384,-0.391 1.005,-0.391 1.389,0 l 7.86,8 c 0.384,0.391 0.384,1.023 0,1.414 C 15.275,28.902 15.023,29 14.772,29 Z"
         id="path19"
         style="fill:#ff0000;fill-opacity:1" /></g></g></svg>